<svg width="40" height="40" xmlns="http://www.w3.org/2000/svg" xmlns:svg="http://www.w3.org/2000/svg" version="1.1">
  <g class="layer">
    <title>Layer 1</title>
    <g id="surface1">
      <path d="m4,7l6.2,4.65c1.07,0.8 2.53,0.8 3.6,0l6.2,-4.65"
            fill="none"
            id="svg_1"
            stroke="white"
            stroke-linecap="round"
            stroke-linejoin="round"
            stroke-miterlimit="4"
            stroke-width="2"
            transform="matrix(1.666667,0,0,1.666667,0,0)"/>
      <path d="m5,5l14,0c1.1,0 2,0.89 2,2l0,10c0,1.11 -0.9,2 -2,2l-14,0c-1.1,0 -2,-0.89 -2,-2l0,-10c0,-1.11 0.9,-2 2,-2zm0,0"
            fill="none"
            id="svg_2"
            stroke="white"
            stroke-linecap="round"
            stroke-miterlimit="4"
            stroke-width="2"
            transform="matrix(1.666667,0,0,1.666667,0,0)"/>
    </g>
  </g>
</svg>
